<svg xmlns="http://www.w3.org/2000/svg" viewBox="0 0 512 512" width="100%" height="100%">
  <rect width="100%" height="100%" fill="#f7f6f2"/>
  
  <g fill="none" stroke-linecap="round" stroke-linejoin="round">
    <path d="M 40,380 Q 256,470 472,380" stroke="#2b95dc" stroke-width="26"/>
    
    <path d="M 85,350 C 85,385 130,385 170,385 L 342,385 C 382,385 427,385 427,350 L 427,205 L 375,205 L 375,340 C 375,355 365,360 345,360 L 255,360 L 255,230 L 160,230 L 160,205 L 85,205 Z" stroke="#1f6e5c" stroke-width="22"/>
    
    <path d="M 85,205 L 85,110 C 85,90 120,90 120,110" stroke="#1f6e5c" stroke-width="20"/>
    
    <path d="M 395,205 L 395,145 C 395,115 350,115 350,145" stroke="#1f6e5c" stroke-width="20"/>
    <path d="M 375,155 L 415,155" stroke="#1f6e5c" stroke-width="18"/>
    <path d="M 410,140 L 410,170" stroke="#1f6e5c" stroke-width="16"/>
    
    <path d="M 265,310 L 315,310 C 335,310 345,300 355,270 L 370,225" stroke="#1f6e5c" stroke-width="22"/>
    <path d="M 290,310 L 290,340" stroke="#1f6e5c" stroke-width="20"/>
    
    <path d="M 230,285 L 230,315" stroke="#cfa134" stroke-width="22" stroke-linecap="round"/>
  </g>
</svg>