<svg xmlns="http://www.w3.org/2000/svg" viewBox="0 0 512 512" width="100%" height="100%">
  <g fill="none" stroke-linecap="round" stroke-linejoin="round">
    <path d="M 60,400 Q 256,480 452,400" stroke="#2b95dc" stroke-width="34"/>
    
    <path d="M 110,360 C 110,390 140,390 170,390 L 342,390 C 372,390 402,390 402,360 L 402,230 L 355,230 L 355,345 C 355,355 345,360 330,360 L 255,360 L 255,250 L 175,250 L 175,230 L 110,230 Z" stroke="#1f6e5c" stroke-width="30"/>
    
    <path d="M 110,230 L 110,130 C 110,105 145,105 145,130" stroke="#1f6e5c" stroke-width="28"/>
    
    <path d="M 375,230 L 375,165 C 375,135 335,135 335,165" stroke="#1f6e5c" stroke-width="28"/>
    <path d="M 355,175 L 395,175" stroke="#1f6e5c" stroke-width="24"/>
    <path d="M 390,160 L 390,190" stroke="#1f6e5c" stroke-width="22"/>
    
    <path d="M 265,315 L 310,315 C 325,315 335,305 342,280 L 352,245" stroke="#1f6e5c" stroke-width="30"/>
    <path d="M 285,315 L 285,345" stroke="#1f6e5c" stroke-width="26"/>
    
    <path d="M 225,290 L 225,325" stroke="#cfa134" stroke-width="30"/>
  </g>
</svg>