<?xml version="1.0" standalone="no"?>
<!DOCTYPE svg PUBLIC "-//W3C//DTD SVG 20010904//EN"
 "http://www.w3.org/TR/2001/REC-SVG-20010904/DTD/svg10.dtd">
<svg version="1.0" xmlns="http://www.w3.org/2000/svg"
 width="1024.000000pt" height="1024.000000pt" viewBox="0 0 1024.000000 1024.000000"
 preserveAspectRatio="xMidYMid meet">

<g transform="translate(0.000000,1024.000000) scale(0.100000,-0.100000)"
fill="#000000" stroke="none">
<path d="M2991 6624 c-70 -19 -111 -45 -159 -99 -77 -88 -73 13 -70 -1505 3
-1281 4 -1358 21 -1410 39 -115 135 -269 193 -306 30 -20 248 -70 339 -78 l70
-7 -70 24 c-104 35 -156 63 -215 113 -71 61 -125 128 -160 199 -59 119 -60
123 -60 1002 0 715 2 803 16 817 13 14 62 16 382 16 339 0 370 -1 402 -19 53
-27 57 -61 59 -401 2 -641 13 -1134 26 -1201 18 -91 64 -176 134 -252 62 -65
119 -102 218 -140 l58 -22 1140 -3 c799 -2 1155 1 1192 8 81 17 182 73 241
132 64 65 88 104 118 188 l24 65 0 776 c0 505 4 786 10 806 21 59 42 63 310
63 147 0 249 -4 261 -10 19 -10 19 -30 19 -808 0 -888 3 -848 -69 -997 -69
-144 -199 -260 -360 -322 -83 -32 -84 -33 -36 -27 96 11 222 34 274 50 42 12
66 29 114 78 112 114 177 256 197 434 13 116 13 1565 0 1612 -5 20 -26 51 -45
70 l-36 35 -127 5 -127 5 0 105 0 105 105 5 c58 3 111 9 118 13 7 5 12 29 12
58 0 38 -4 52 -20 61 -19 12 -20 24 -20 161 0 144 -1 148 -23 158 -15 7 -31 7
-50 0 l-27 -11 0 -150 0 -151 -47 3 -48 3 -6 195 c-3 107 -10 209 -16 225 -60
176 -232 289 -411 271 -99 -10 -165 -40 -236 -107 -74 -69 -115 -149 -124
-241 -6 -69 1 -78 64 -78 51 0 59 10 73 82 12 69 30 104 68 139 83 78 203 96
306 45 109 -53 147 -132 147 -302 l0 -104 -100 0 c-113 0 -115 -1 -108 -91 l3
-44 100 -5 100 -5 0 -170 0 -170 -110 -5 c-123 -6 -156 -18 -202 -75 -15 -19
-35 -58 -43 -87 l-16 -53 -94 -6 c-122 -8 -190 -39 -275 -124 -82 -81 -107
-138 -154 -350 -89 -403 -90 -407 -117 -442 -14 -18 -43 -42 -64 -53 -36 -18
-63 -20 -362 -22 -317 -3 -324 -4 -372 -27 -33 -17 -57 -38 -77 -69 -27 -43
-29 -52 -29 -151 0 -59 5 -113 10 -121 7 -12 39 -16 142 -20 l133 -5 0 -210 0
-210 -174 -3 c-119 -2 -178 1 -187 9 -12 10 -14 135 -14 757 l0 745 -24 41
c-27 46 -65 77 -115 94 -24 9 -189 12 -582 12 l-549 0 0 88 c0 48 -5 103 -10
123 -14 49 -71 113 -125 138 -43 20 -58 21 -433 21 -288 0 -391 3 -400 12 -16
16 -17 795 -1 853 24 84 119 143 210 129 58 -10 134 -82 143 -139 14 -79 53
-105 104 -69 31 21 30 92 -2 159 -64 134 -217 207 -355 169z m3774 -2164 l0
-715 -27 -58 c-32 -68 -107 -144 -175 -178 l-48 -24 -434 -3 c-239 -2 -439 -1
-445 1 -8 3 -10 68 -8 215 l3 210 247 4 c245 4 247 4 317 32 97 40 132 64 197
135 95 102 118 164 178 476 62 323 108 562 115 592 5 20 31 32 65 29 13 -1 15
-88 15 -716z m-215 645 c0 -14 -13 -92 -29 -173 -17 -81 -44 -221 -61 -312
-57 -303 -72 -353 -132 -436 -18 -25 -60 -62 -95 -84 -105 -67 -130 -70 -535
-70 l-358 0 0 49 c0 32 6 56 18 71 18 22 19 22 322 21 322 -1 359 3 447 47 43
22 98 83 128 141 9 18 36 124 60 235 83 388 97 427 170 495 52 47 65 51 65 16z
m-1565 -120 l25 -24 0 -724 c0 -697 -1 -725 -19 -741 -17 -16 -53 -17 -422
-14 l-404 3 -63 34 c-74 40 -156 118 -179 170 -43 100 -44 105 -53 706 -6 319
-7 588 -4 597 5 17 40 18 550 18 l545 0 24 -25z"/>
<path d="M2215 3360 c21 -24 26 -25 19 -6 -3 8 -13 17 -22 21 -13 5 -13 2 3
-15z"/>
<path d="M8030 3355 c-26 -15 -37 -25 -26 -25 16 0 17 -2 5 -17 -24 -29 22 1
55 36 36 37 26 39 -34 6z"/>
<path d="M2290 3325 c14 -8 32 -14 40 -14 9 0 4 6 -10 14 -14 8 -32 14 -40 14
-9 0 -4 -6 10 -14z"/>
<path d="M2300 3281 c25 -22 56 -46 70 -53 14 -7 28 -17 31 -22 4 -5 6 6 5 24
-1 24 -8 35 -24 41 -31 12 -28 20 6 14 15 -3 20 -2 12 1 -8 4 -23 11 -34 16
-12 7 -16 7 -12 0 10 -16 -52 -11 -65 5 -6 7 -17 13 -23 13 -6 0 9 -18 34 -39z
m97 -37 c-3 -3 -12 -4 -19 -1 -8 3 -5 6 6 6 11 1 17 -2 13 -5z"/>
<path d="M2448 3258 c5 -5 16 -8 23 -6 8 3 3 7 -10 11 -17 4 -21 3 -13 -5z"/>
<path d="M7805 3260 c-11 -5 -49 -20 -83 -33 l-64 -24 31 -11 c17 -6 31 -18
31 -26 0 -29 30 -18 31 12 1 16 3 20 6 10 2 -10 9 -18 15 -18 6 0 6 -6 -2 -15
-17 -20 -7 -19 41 5 22 12 37 25 34 30 -3 5 0 7 8 5 7 -3 21 3 31 14 17 19 17
19 -5 14 -18 -5 -21 -3 -15 12 5 14 3 15 -6 8 -8 -6 -22 -7 -33 -2 -17 6 -17
8 -2 8 9 1 17 6 17 11 0 12 -8 12 -35 0z m-35 -40 c-8 -5 -19 -10 -25 -10 -5
0 -3 5 5 10 8 5 20 10 25 10 6 0 3 -5 -5 -10z"/>
<path d="M2684 3173 c15 -4 16 -7 5 -15 -10 -7 -4 -8 19 -4 28 5 31 3 20 -8
-7 -7 -20 -16 -28 -19 -8 -3 10 -4 40 -1 30 3 69 5 85 5 21 0 9 7 -44 24 -40
14 -83 24 -95 24 -19 -1 -19 -2 -2 -6z"/>
<path d="M2507 3149 c7 -7 15 -10 18 -7 3 3 -2 9 -12 12 -14 6 -15 5 -6 -5z"/>
<path d="M7345 3109 c-69 -22 -80 -28 -45 -23 32 4 41 2 30 -5 -23 -16 -2 -26
24 -11 27 14 83 10 131 -11 28 -12 29 -13 7 -17 -12 -2 -20 -8 -17 -13 4 -5
-3 -9 -15 -9 -12 0 -19 4 -16 8 3 5 -8 6 -25 4 -32 -5 -39 -18 -11 -25 14 -3
13 -6 -8 -16 -23 -10 -22 -11 12 -6 42 6 121 39 113 47 -3 2 5 4 17 4 11 -1
23 4 25 11 3 7 -3 10 -15 6 -12 -3 -22 1 -25 11 -3 8 -24 20 -46 26 -46 12
-51 22 -18 38 l22 11 -25 0 c-14 0 -65 -13 -115 -30z"/>
<path d="M2605 3111 c-17 -7 -10 -13 44 -40 65 -31 84 -33 62 -7 -8 10 -9 16
-1 21 18 11 11 20 -17 20 -16 1 -37 4 -48 7 -11 4 -29 3 -40 -1z m72 -27 c-3
-3 -12 -4 -19 -1 -8 3 -5 6 6 6 11 1 17 -2 13 -5z"/>
<path d="M2948 3093 c6 -2 18 -2 25 0 6 3 1 5 -13 5 -14 0 -19 -2 -12 -5z"/>
<path d="M2998 3083 c7 -3 16 -2 19 1 4 3 -2 6 -13 5 -11 0 -14 -3 -6 -6z"/>
<path d="M3075 3060 c3 -5 21 -10 38 -11 18 0 26 -3 20 -6 -29 -11 -10 -24 35
-23 26 1 58 -2 72 -6 22 -6 23 -5 10 8 -8 9 -48 23 -89 32 -86 19 -94 19 -86
6z"/>
<path d="M3020 3056 c0 -2 7 -7 16 -10 8 -3 12 -2 9 4 -6 10 -25 14 -25 6z"/>
<path d="M7308 3043 c7 -3 16 -2 19 1 4 3 -2 6 -13 5 -11 0 -14 -3 -6 -6z"/>
<path d="M2745 3030 c3 -5 13 -10 21 -10 8 0 12 5 9 10 -3 6 -13 10 -21 10 -8
0 -12 -4 -9 -10z"/>
<path d="M2795 3011 c13 -11 77 -32 82 -27 2 2 -17 11 -44 20 -26 9 -43 12
-38 7z"/>
<path d="M6850 2994 c-58 -13 -90 -22 -72 -20 18 1 35 -1 38 -6 3 -4 20 -8 37
-7 31 1 31 1 7 9 -21 7 -21 8 -5 9 11 0 26 -3 34 -8 10 -7 20 -4 31 9 9 10 29
21 46 25 l29 6 -30 -14 c-24 -11 -26 -14 -12 -20 9 -3 17 -2 17 3 0 6 5 10 11
10 6 0 17 7 25 15 14 13 12 15 -18 14 -18 -1 -80 -12 -138 -25z"/>
<path d="M3398 2993 c7 -3 16 -2 19 1 4 3 -2 6 -13 5 -11 0 -14 -3 -6 -6z"/>
<path d="M3448 2983 c6 -2 18 -2 25 0 6 3 1 5 -13 5 -14 0 -19 -2 -12 -5z"/>
<path d="M2914 2971 c8 -12 131 -58 176 -66 l35 -6 -33 16 c-18 8 -31 19 -27
25 3 5 -1 10 -9 10 -9 0 -16 7 -16 17 0 15 -2 15 -19 -1 -20 -18 -74 -15 -86
5 -4 5 -11 9 -16 9 -6 0 -8 -4 -5 -9z"/>
<path d="M3525 2969 c22 -4 54 -8 70 -7 22 0 19 3 -15 9 -60 10 -108 9 -55 -2z"/>
<path d="M3090 2936 c0 -2 7 -6 15 -10 8 -3 15 -1 15 4 0 6 -7 10 -15 10 -8 0
-15 -2 -15 -4z"/>
<path d="M3738 2933 c6 -2 18 -2 25 0 6 3 1 5 -13 5 -14 0 -19 -2 -12 -5z"/>
<path d="M6350 2915 c-71 -10 -77 -13 -38 -14 26 0 59 -6 75 -12 15 -6 44 -7
63 -4 32 6 33 8 16 20 -16 12 -15 14 16 18 30 3 29 4 -7 4 -22 0 -78 -5 -125
-12z m83 -22 c-7 -2 -19 -2 -25 0 -7 3 -2 5 12 5 14 0 19 -2 13 -5z"/>
<path d="M3917 2908 c2 -5 -8 -8 -24 -9 -26 -1 -26 -2 7 -9 19 -5 37 -7 39 -4
2 2 -2 5 -10 6 -8 0 6 4 31 7 l45 7 -47 4 c-25 3 -44 2 -41 -2z"/>
<path d="M7069 2889 c-12 -23 -29 -25 -29 -4 0 10 -10 15 -30 15 -16 0 -30 -4
-30 -9 0 -4 -15 -13 -32 -19 -34 -12 -10 -10 42 3 14 3 3 -6 -25 -19 -27 -14
-44 -25 -37 -26 17 0 187 49 226 66 31 13 31 13 -22 12 -41 0 -55 -4 -63 -19z"/>
<path d="M4033 2893 c15 -2 37 -2 50 0 12 2 0 4 -28 4 -27 0 -38 -2 -22 -4z"/>
<path d="M6208 2893 c12 -2 30 -2 40 0 9 3 -1 5 -23 4 -22 0 -30 -2 -17 -4z"/>
<path d="M6528 2893 c6 -2 18 -2 25 0 6 3 1 5 -13 5 -14 0 -19 -2 -12 -5z"/>
<path d="M4138 2883 c12 -2 30 -2 40 0 9 3 -1 5 -23 4 -22 0 -30 -2 -17 -4z"/>
<path d="M6118 2883 c12 -2 32 -2 45 0 12 2 2 4 -23 4 -25 0 -35 -2 -22 -4z"/>
<path d="M3388 2863 c6 -2 18 -2 25 0 6 3 1 5 -13 5 -14 0 -19 -2 -12 -5z"/>
<path d="M4463 2853 c9 -2 25 -2 35 0 9 3 1 5 -18 5 -19 0 -27 -2 -17 -5z"/>
<path d="M5738 2853 c7 -3 16 -2 19 1 4 3 -2 6 -13 5 -11 0 -14 -3 -6 -6z"/>
<path d="M6888 2853 c7 -3 16 -2 19 1 4 3 -2 6 -13 5 -11 0 -14 -3 -6 -6z"/>
<path d="M3302 2845 c2 -2 30 -10 63 -18 33 -9 68 -19 78 -22 10 -4 17 -3 17
4 0 6 -6 11 -14 11 -8 0 -18 5 -22 12 -4 7 -3 8 4 4 7 -4 12 -3 12 1 0 5 -32
9 -70 9 -39 1 -69 0 -68 -1z"/>
<path d="M4663 2843 c32 -2 81 -2 110 0 29 2 3 3 -58 3 -60 0 -84 -1 -52 -3z"/>
<path d="M5573 2843 c26 -2 67 -2 90 0 23 2 2 3 -48 3 -49 0 -68 -1 -42 -3z"/>
<path d="M5058 2833 c56 -2 148 -2 205 0 56 1 10 3 -103 3 -113 0 -159 -2
-102 -3z"/>
<path d="M4568 2823 c7 -3 16 -2 19 1 4 3 -2 6 -13 5 -11 0 -14 -3 -6 -6z"/>
<path d="M3498 2793 c7 -3 16 -2 19 1 4 3 -2 6 -13 5 -11 0 -14 -3 -6 -6z"/>
<path d="M6615 2786 c22 -11 25 -15 11 -16 -40 0 -146 -22 -146 -29 0 -9 198
27 220 39 10 7 3 9 -25 8 -22 0 -51 2 -65 6 -21 5 -20 4 5 -8z"/>
<path d="M6468 2783 c-24 -6 -23 -23 2 -23 11 0 20 7 20 15 0 8 -1 14 -2 14
-2 -1 -11 -3 -20 -6z"/>
<path d="M6545 2780 c-18 -8 -17 -9 8 -9 16 -1 26 3 22 9 -3 6 -7 10 -8 9 -1
0 -11 -4 -22 -9z"/>
<path d="M3708 2753 c7 -3 16 -2 19 1 4 3 -2 6 -13 5 -11 0 -14 -3 -6 -6z"/>
<path d="M3780 2741 c19 -4 45 -11 58 -15 12 -4 22 -3 22 2 0 11 -50 23 -89
21 -22 -1 -20 -2 9 -8z"/>
<path d="M3918 2713 c12 -2 30 -2 40 0 9 3 -1 5 -23 4 -22 0 -30 -2 -17 -4z"/>
<path d="M6328 2713 c7 -3 16 -2 19 1 4 3 -2 6 -13 5 -11 0 -14 -3 -6 -6z"/>
<path d="M3993 2703 c9 -2 23 -2 30 0 6 3 -1 5 -18 5 -16 0 -22 -2 -12 -5z"/>
<path d="M6185 2700 c-27 -7 -28 -8 -5 -8 14 -1 43 3 65 7 l40 9 -35 0 c-19 0
-48 -4 -65 -8z"/>
<path d="M4098 2693 c7 -3 16 -2 19 1 4 3 -2 6 -13 5 -11 0 -14 -3 -6 -6z"/>
<path d="M4145 2690 c-3 -5 1 -10 10 -10 9 0 13 5 10 10 -3 6 -8 10 -10 10 -2
0 -7 -4 -10 -10z"/>
<path d="M6013 2693 c9 -2 23 -2 30 0 6 3 -1 5 -18 5 -16 0 -22 -2 -12 -5z"/>
<path d="M6040 2680 c-41 -6 -42 -7 -10 -8 19 0 55 3 80 7 40 8 41 8 10 8 -19
0 -55 -3 -80 -7z"/>
<path d="M4265 2670 c28 -5 64 -8 80 -8 l30 0 -30 8 c-16 4 -52 8 -80 7 l-50
0 50 -7z"/>
<path d="M5918 2663 c7 -3 16 -2 19 1 4 3 -2 6 -13 5 -11 0 -14 -3 -6 -6z"/>
<path d="M4448 2653 c6 -2 18 -2 25 0 6 3 1 5 -13 5 -14 0 -19 -2 -12 -5z"/>
<path d="M4703 2633 c26 -2 67 -2 90 0 23 2 2 3 -48 3 -49 0 -68 -1 -42 -3z"/>
<path d="M5548 2633 c18 -2 45 -2 60 0 15 2 0 4 -33 4 -33 0 -45 -2 -27 -4z"/>
<path d="M5013 2623 c64 -2 170 -2 235 0 64 1 11 3 -118 3 -129 0 -182 -2
-117 -3z"/>
</g>
</svg>
